<svg width="450" height="350" viewBox="0 0 450 350" fill="none" xmlns="http://www.w3.org/2000/svg">
<path fill-rule="evenodd" clip-rule="evenodd" d="M288.586 99.925C288.589 100.074 288.475 100.199 288.331 100.202L132.87 103.877C123.575 104.097 114.171 104.343 105.371 107.288C96.5739 110.232 88.3333 116.303 84.8346 125.115C80.5354 135.944 84.3053 148.864 91.6279 157.868C98.9511 166.873 109.261 172.654 119.582 177.715C166.496 200.72 218.355 212.799 270.248 212.811C282.53 212.813 294.829 212.152 307.131 211.49C307.821 211.454 308.512 211.416 309.202 211.38C309.346 211.371 309.468 211.486 309.476 211.636C309.484 211.786 309.373 211.913 309.229 211.92C308.537 211.958 307.845 211.995 307.153 212.032C294.855 212.693 282.543 213.355 270.247 213.353C218.277 213.341 166.343 201.244 119.359 178.205C109.033 173.142 98.631 167.32 91.2285 158.218C83.8254 149.115 79.9549 135.983 84.3514 124.909C87.9278 115.901 96.3231 109.747 105.211 106.772C114.095 103.799 123.576 103.555 132.859 103.335L288.319 99.6602C288.463 99.6567 288.583 99.7751 288.586 99.925Z" fill="#2249B3"/>
<path fill-rule="evenodd" clip-rule="evenodd" d="M247.116 335.823V40.7376H248.16V335.823H247.116Z" fill="#B0C1E1"/>
<path opacity="0.15" d="M247.115 335.823C168.666 335.823 104.842 269.634 104.842 188.281C104.842 106.927 168.666 40.7382 247.115 40.7382" fill="#B0C1E1"/>
<path opacity="0.15" d="M247.114 303.837C185.672 303.837 135.684 251.998 135.684 188.28C135.684 124.562 185.672 72.723 247.114 72.723" fill="#B0C1E1"/>
<path opacity="0.25" d="M247.115 271.851C202.679 271.851 166.528 234.362 166.528 188.279C166.528 142.197 202.679 104.708 247.115 104.708" fill="#B0C1E1"/>
<path opacity="0.5" d="M247.115 239.867C219.642 239.867 197.371 216.771 197.371 188.281C197.371 159.791 219.642 136.695 247.115 136.695" fill="#B0C1E1"/>
<path d="M247.115 214.778C233.003 214.778 221.563 202.915 221.563 188.281C221.563 173.646 233.003 161.783 247.115 161.783" fill="#B0C1E1"/>
<path d="M317.062 181.201L293.011 235.414L289.103 244.23H230.315L226.406 235.414L202.355 181.201L210.245 138.594L243.221 126.163H276.197L309.172 138.594L317.062 181.201Z" fill="#2249B3"/>
<path d="M275.972 100.848V132.959C275.972 134.497 275.246 135.928 274.065 136.86C266.974 142.42 251.582 142.105 245.609 136.827C244.397 135.76 243.445 134.4 243.445 132.747V100.848H275.972Z" fill="#FF7373"/>
<path d="M268.726 128.322C261.939 133.801 255.954 133.611 250.691 128.322V106.174H268.726V128.322Z" fill="#B0C1E1"/>
<path opacity="0.42" d="M275.972 100.848V114.525C264.823 122.316 254.027 124.261 243.445 114.633V100.848H275.972Z" fill="black"/>
<path fill-rule="evenodd" clip-rule="evenodd" d="M252.013 108.271H267.404V126.782L267.239 126.915C264.457 129.16 261.793 130.283 259.244 130.262C256.688 130.243 254.322 129.073 252.143 126.883L252.013 126.753V108.271ZM252.869 109.159V126.375C254.893 128.362 257.015 129.357 259.251 129.375C261.496 129.393 263.923 128.426 266.548 126.346V109.159H252.869Z" fill="#2249B3"/>
<path d="M259.723 114.485H255.414C242.887 114.485 232.731 103.954 232.731 90.9615V63.1663C232.731 50.1743 242.887 48.943 255.414 48.943H259.723C272.251 48.943 282.406 50.1743 282.406 63.1663V90.9615C282.406 103.954 272.251 114.485 259.723 114.485Z" fill="#B0C1E1"/>
<path fill-rule="evenodd" clip-rule="evenodd" d="M65.4097 239.446C51.727 235.853 36.1378 236.902 25.1386 245.968C19.6484 250.494 15.8783 257.359 14.5995 264.499C13.3209 271.638 14.5367 279.025 18.9804 284.617C19.0722 284.732 19.0563 284.903 18.9449 284.998C18.8336 285.093 18.669 285.077 18.5772 284.961C14.0143 279.22 12.7856 271.66 14.0858 264.4C15.3858 257.142 19.2175 250.157 24.8134 245.544C35.986 236.335 51.7639 235.303 65.538 238.921C77.6233 242.094 88.646 248.394 99.5608 254.631C101.081 255.5 102.598 256.367 104.117 257.226C154.888 285.904 191.693 305.184 248.748 314.553C248.89 314.576 248.987 314.715 248.965 314.863C248.942 315.011 248.808 315.111 248.666 315.088C191.518 305.704 154.648 286.385 103.867 257.701C102.345 256.842 100.826 255.973 99.3054 255.105C88.3845 248.864 77.4247 242.601 65.4097 239.446Z" fill="#2249B3"/>
<path opacity="0.15" d="M441.157 242.93H289.862V251.544H441.157V242.93ZM441.157 260.324H289.862V268.938H441.157V260.324ZM441.157 277.719H289.862V286.334H441.157V277.719Z" fill="#B0C1E1"/>
<path d="M70.2473 307.15C94.8437 307.15 114.784 286.472 114.784 260.964C114.784 235.456 94.8437 214.778 70.2473 214.778C45.6503 214.778 25.7106 235.456 25.7106 260.964C25.7106 286.472 45.6503 307.15 70.2473 307.15ZM180.039 18.1733H11.2385V34.1493H180.039V18.1733Z" fill="#2249B3"/>
<path opacity="0.15" d="M180.039 40.7616H11.2385V153.753H180.039V40.7616Z" fill="#B0C1E1"/>
<path opacity="0.15" d="M60.817 48.7499H19.9008V144.273H60.817V48.7499ZM110.492 48.7499H69.5762V54.1685H110.492V48.7499ZM159.349 48.7499H118.433V54.1685H159.349V48.7499ZM110.492 67.473H69.5762V93.6005H110.492V67.473ZM110.492 100.48H69.5762V126.608H110.492V100.48ZM60.817 149.372H19.9008V187.321H60.817V149.372ZM159.349 67.473H118.433V93.6005H159.349V67.473ZM159.349 100.48H118.433V126.608H159.349V100.48Z" fill="#B0C1E1"/>
<path fill-rule="evenodd" clip-rule="evenodd" d="M286.252 105.566C286.252 105.417 286.369 105.296 286.513 105.296H343.658C343.802 105.296 343.919 105.417 343.919 105.566C343.919 105.716 343.802 105.838 343.658 105.838H286.513C286.369 105.838 286.252 105.716 286.252 105.566ZM302.345 101.316C302.345 101.167 302.462 101.046 302.606 101.046H343.658C343.802 101.046 343.919 101.167 343.919 101.316C343.919 101.466 343.802 101.588 343.658 101.588H302.606C302.462 101.588 302.345 101.466 302.345 101.316ZM302.345 97.0667C302.345 96.9168 302.462 96.796 302.606 96.796H354.422C354.567 96.796 354.684 96.9168 354.684 97.0667C354.684 97.2166 354.567 97.3373 354.422 97.3373H302.606C302.462 97.3373 302.345 97.2166 302.345 97.0667ZM302.345 92.8165C302.345 92.6666 302.462 92.5453 302.606 92.5453H343.658C343.802 92.5453 343.919 92.6666 343.919 92.8165C343.919 92.9658 343.802 93.0872 343.658 93.0872H302.606C302.462 93.0872 302.345 92.9658 302.345 92.8165Z" fill="#2249B3"/>
<path d="M70.2472 260.964H114.784C114.784 286.301 94.6789 307.15 70.2472 307.15C45.8151 307.15 25.7106 286.301 25.7106 260.964C25.7106 235.627 45.8151 214.778 70.2472 214.778C79.5077 214.778 88.5414 217.773 96.084 223.344L70.2472 260.964Z" fill="#B0C1E1"/>
<path d="M65.956 251.53H110.492C110.492 276.866 90.3881 297.715 65.956 297.715C41.5242 297.715 21.4197 276.866 21.4197 251.53C21.4197 230.455 35.3288 211.926 55.0295 206.755L65.956 251.53Z" fill="#FF7373"/>
<path fill-rule="evenodd" clip-rule="evenodd" d="M78.8985 318.917H21.4197V316.208H78.8985V318.917ZM78.8985 329.328H21.4197V326.619H78.8985V329.328Z" fill="#B0C1E1"/>
<path fill-rule="evenodd" clip-rule="evenodd" d="M289.992 310.06C289.992 297.789 280.4 287.841 268.566 287.841V286.757C280.977 286.757 291.038 297.19 291.038 310.06C291.038 322.931 280.977 333.365 268.566 333.365C256.155 333.365 246.094 322.931 246.094 310.06H247.139C247.139 322.333 256.732 332.281 268.566 332.281C280.4 332.281 289.992 322.333 289.992 310.06Z" fill="#2249B3"/>
<path fill-rule="evenodd" clip-rule="evenodd" d="M285.152 304.872C282.904 299.258 278.499 294.806 273.012 292.629L273.385 291.617C279.141 293.901 283.759 298.568 286.117 304.456L285.152 304.872Z" fill="#2249B3"/>
<path fill-rule="evenodd" clip-rule="evenodd" d="M421.904 162.976C410.07 162.976 400.477 172.924 400.477 185.197C400.477 197.468 410.07 207.416 421.904 207.416C433.737 207.416 443.33 197.468 443.33 185.197C443.33 172.924 433.737 162.976 421.904 162.976ZM399.432 185.197C399.432 172.326 409.493 161.892 421.904 161.892C434.314 161.892 444.375 172.326 444.375 185.197C444.375 198.067 434.314 208.5 421.904 208.5C409.493 208.5 399.432 198.067 399.432 185.197Z" fill="#B0C1E1"/>
<path fill-rule="evenodd" clip-rule="evenodd" d="M422.426 185.197V307.893C422.426 309.389 421.256 310.602 419.813 310.602H268.566V309.519H419.813C420.679 309.519 421.381 308.791 421.381 307.893V185.197H422.426Z" fill="#B0C1E1"/>
<path d="M316.852 184.736C316.852 184.736 328.62 247.613 345.74 252.051C362.859 256.489 336.54 179.409 336.54 179.409L331.404 158.993H316.852V184.736Z" fill="#FF7373"/>
<path d="M312.572 141.238C312.572 141.238 340.82 146.564 343.388 167.869C345.955 189.173 359.036 252.193 359.036 252.193L345.74 252.05L335.821 179.689C336.25 172.641 332.252 166.109 325.92 163.509L316.852 159.787L312.572 141.238Z" fill="#2249B3"/>
<path d="M317.507 195.723C319.99 195.441 321.643 191.803 321.198 187.599L316.456 142.766C316.083 139.233 314.323 136.328 312.207 135.75L309.871 135.112C306.773 134.266 304.413 138.654 305.21 143.778L312.288 189.25C312.898 193.174 315.168 195.989 317.507 195.723Z" fill="#2249B3"/>
<path d="M356.666 257.942C366.44 257.942 374.363 249.725 374.363 239.588C374.363 229.452 366.44 221.236 356.666 221.236C346.892 221.236 338.968 229.452 338.968 239.588C338.968 249.725 346.892 257.942 356.666 257.942Z" fill="#FF7373"/>
<path d="M371.81 161.988L387.053 165.203C387.053 165.203 371.673 247.232 366.298 250.34C359.72 254.143 349.949 254.449 345.408 241.734C341.574 230.997 369.138 179.684 371.81 161.988Z" fill="#2249B3"/>
<path d="M282.289 51.0443V63.301L232.849 60.0011V51.0443C232.849 50.2424 232.943 49.4621 233.115 48.7143C234.191 44.0814 238.408 40.6243 243.451 40.6243H271.687C276.348 40.6243 280.308 43.5828 281.724 47.6901C282.09 48.7414 282.289 49.8684 282.289 51.0443Z" fill="#B0C1E1"/>
<path d="M206.52 184.524C206.52 184.524 214.831 270.811 197.711 275.25C180.591 279.688 182.034 179.408 182.034 179.408L187.17 158.992L204.996 157.985L206.52 184.524Z" fill="#FF7373"/>
<path d="M206.002 141.238C206.002 141.238 177.754 146.564 175.186 167.869C172.618 189.173 184.414 275.393 184.414 275.393L197.711 275.25L182.753 179.689C182.324 172.641 186.321 166.109 192.653 163.509L201.721 159.787L206.002 141.238Z" fill="#2249B3"/>
<path d="M205.583 196.057C203.087 196.17 200.919 192.837 200.74 188.612L198.83 143.553C198.679 140.003 199.991 136.853 201.998 135.948C201.998 135.948 202.754 135.301 206.52 135.79C210.284 136.278 211.208 137.828 211.174 143.019L209.789 188.834C209.762 192.809 207.934 195.949 205.583 196.057ZM197.303 283.242C207.078 283.242 215.001 275.025 215.001 264.888C215.001 254.752 207.078 246.535 197.303 246.535C187.529 246.535 179.606 254.752 179.606 264.888C179.606 275.025 187.529 283.242 197.303 283.242Z" fill="#FF7373"/>
<path d="M293.948 158.992L288.309 205.151C269.778 206.76 250.712 207.001 231.108 205.151L225.469 158.992C236.94 148.517 285.342 148.559 293.948 158.992Z" fill="#B0C1E1"/>
<path d="M288.309 162.254L283.598 200.811C268.12 202.155 252.193 202.356 235.819 200.811L231.108 162.254C240.69 153.504 281.12 153.54 288.309 162.254Z" fill="#2249B3"/>
<path d="M280.651 166.684L277.202 194.917C265.868 195.901 254.206 196.049 242.215 194.917L238.766 166.684C245.782 160.277 275.387 160.303 280.651 166.684Z" fill="#FF7373"/>
<path d="M268.196 97.51C269.053 99.8381 266.074 107.554 257.847 107.127C252.594 106.854 248.155 100.61 249.027 97.51C255.61 99.0453 262.016 99.1824 268.196 97.51Z" fill="#2249B3"/>
<path fill-rule="evenodd" clip-rule="evenodd" d="M279.511 40.4024C279.98 38.4539 281.885 37.2693 283.764 37.7568L283.66 38.1874L283.764 37.7568L287.576 38.7458C289.455 39.2333 290.598 41.2079 290.127 43.1565L286.267 59.1622C285.797 61.1106 283.893 62.2953 282.014 61.8077L278.201 60.8189C276.322 60.3313 275.18 58.3567 275.65 56.4082L279.511 40.4024ZM283.556 38.618C282.136 38.2495 280.696 39.1449 280.341 40.6178L276.48 56.6236C276.125 58.0966 276.988 59.5893 278.409 59.9579L282.221 60.9467C283.642 61.3153 285.081 60.4199 285.437 58.947L289.297 42.9411C289.653 41.4682 288.789 39.9754 287.369 39.607L283.556 38.618L283.66 38.189L283.556 38.618Z" fill="#2249B3"/>
<path fill-rule="evenodd" clip-rule="evenodd" d="M290.239 23.0827L282.663 54.2377L281.833 54.0206L289.409 22.8656L290.239 23.0827Z" fill="#2249B3"/>
<path opacity="0.3" d="M289.824 31.3668C285.362 31.3668 281.732 27.6023 281.732 22.9748C281.732 18.3478 285.362 14.5833 289.824 14.5833C294.287 14.5833 297.916 18.3478 297.916 22.9748C297.916 27.6023 294.287 31.3668 289.824 31.3668Z" fill="#FF7373"/>
<path opacity="0.3" d="M289.824 28.6569C286.802 28.6569 284.344 26.108 284.344 22.9742C284.344 19.841 286.802 17.2921 289.824 17.2921C292.846 17.2921 295.304 19.841 295.304 22.9742C295.304 26.108 292.846 28.6569 289.824 28.6569Z" fill="#FF7373"/>
<path d="M289.824 25.9479C291.408 25.9479 292.691 24.6167 292.691 22.9746C292.691 21.3326 291.408 20.0014 289.824 20.0014C288.241 20.0014 286.957 21.3326 286.957 22.9746C286.957 24.6167 288.241 25.9479 289.824 25.9479Z" fill="#FF7373"/>
<path d="M232.635 212.775C233.59 212.775 234.364 211.972 234.364 210.982C234.364 209.992 233.59 209.189 232.635 209.189C231.68 209.189 230.906 209.992 230.906 210.982C230.906 211.972 231.68 212.775 232.635 212.775Z" fill="#2249B3"/>
<path d="M237.316 212.775C238.27 212.775 239.045 211.972 239.045 210.982C239.045 209.992 238.27 209.189 237.316 209.189C236.361 209.189 235.587 209.992 235.587 210.982C235.587 211.972 236.361 212.775 237.316 212.775Z" fill="#B0C1E1"/>
<path d="M241.997 212.775C242.952 212.775 243.726 211.972 243.726 210.982C243.726 209.992 242.952 209.189 241.997 209.189C241.042 209.189 240.268 209.992 240.268 210.982C240.268 211.972 241.042 212.775 241.997 212.775Z" fill="#FF7373"/>
<path d="M268.269 97.4353C268.4 97.5421 268.436 97.7988 268.409 98.1412C268.222 100.497 266.126 101.666 263.881 102.07C260.161 102.74 254.414 102.19 251.192 100.795C249.99 100.274 248.912 99.3942 248.943 98.0432C248.949 97.7929 248.994 97.5777 249.1 97.4353C255.685 99.0593 262.087 99.1655 268.269 97.4353Z" fill="white"/>
<path d="M219.51 309.719L232.635 300.467C232.635 300.467 212.457 260.449 205.353 257.694C196.658 254.323 189.388 258.077 187.749 266.976C186.11 275.876 205.347 298.607 219.51 309.719Z" fill="#2249B3"/>
<path d="M228.545 295.326C233.318 291.756 237.744 288.731 243.853 289.277C247.231 290.293 251.263 292.171 253.65 294.69C256.039 297.209 257.287 300.512 258.148 303.319C258.554 304.646 258.016 304.805 257.267 305.108C256.267 305.514 254.972 305.269 254.246 304.17C252.98 302.251 252.025 300.059 249.833 298.941C247.641 297.825 244.45 297.338 242.358 298.126C240.266 298.914 240.086 300.026 240.463 301.849C236.741 296.105 235.043 297.708 228.545 295.326ZM238.974 319.721C238.974 319.721 229.321 318.404 223.162 314.53C215.414 309.656 220.125 301.837 220.125 301.837L238.974 319.721Z" fill="#2249B3"/>
<path fill-rule="evenodd" clip-rule="evenodd" d="M253.467 294.901C249.923 298.745 247.923 304.09 247.923 310.06H245.311C245.311 303.46 247.527 297.424 251.579 293.029C255.639 288.625 261.475 285.944 268.566 285.944V288.653C262.141 288.653 257.002 291.067 253.467 294.901Z" fill="#FF7373"/>
<path d="M387.949 168.337C385.766 171.222 376.212 172.342 369.766 165.204C363.319 158.066 355.146 142.428 361.803 137.527C364.56 135.496 366.672 149.517 368.173 145.312C371.273 136.625 370.055 114.258 377.232 114.258C379.688 114.258 376.306 121.636 378.411 124.55C380.808 127.87 380.431 130.79 382.051 135.59C384.698 143.432 394.269 147.86 393.627 151.04C392.249 157.875 387.949 168.337 387.949 168.337Z" fill="#2249B3"/>
<path d="M290.849 240.29L289.102 244.231H230.314L228.631 240.435L290.849 240.29Z" fill="black" fill-opacity="0.5"/>
<path opacity="0.25" d="M282.289 66.4644L232.849 63.1645V54.2074C232.849 53.4055 232.849 51.7816 232.849 51.7816C249.689 44.0329 267.963 44.6465 282.112 50.8346C282.533 52.6669 282.311 53.3543 282.289 54.2074V66.4644Z" fill="#2249B3"/>
<path d="M290.983 250.34H228.434C226.415 250.34 224.777 248.642 224.777 246.548C224.777 244.453 226.415 242.755 228.434 242.755H290.983C293.002 242.755 294.64 244.453 294.64 246.548C294.64 248.642 293.002 250.34 290.983 250.34Z" fill="#FF7373"/>
<path opacity="0.25" d="M236.864 94.7024C236.864 94.7024 278.8 98.6329 281.702 96.8013C281.702 96.8013 282.065 94.9474 282.158 93.9843L234.121 92.6893L236.864 94.7024Z" fill="#2249B3"/>
<path d="M279.612 94.7018H235.335C235.335 94.7018 227.055 94.3098 225.526 90.2772C222.958 83.4989 220.389 76.7212 217.82 69.9434C216.571 66.6499 217.582 62.8635 220.342 60.7827C246.327 41.1936 277.115 44.76 295.138 60.5366C297.625 62.7147 298.514 66.2859 297.323 69.4277C294.689 76.3776 292.055 83.3274 289.42 90.2772C287.892 94.3098 279.612 94.7018 279.612 94.7018Z" fill="#2249B3"/>
<path d="M276.896 83.6412C264.416 79.8986 250.721 79.8986 238.241 83.6412C236.091 84.2823 233.627 83.5835 232.68 81.9192C231.761 80.2445 230.842 78.5698 229.923 76.895C228.976 75.236 230.402 73.0497 233.179 72.2184C248.928 67.4963 266.209 67.4958 281.958 72.2184C284.735 73.0497 286.161 75.2366 285.215 76.895C284.295 78.5698 283.376 80.2445 282.457 81.9192C281.51 83.5835 279.046 84.2823 276.896 83.6412Z" fill="white"/>
<path d="M249.44 76.8763C245.188 76.538 240.786 77.4865 237.016 79.5538C236.366 79.9085 235.529 79.8548 235.118 79.3853C234.714 78.911 234.311 78.4362 233.908 77.9619C233.497 77.4941 233.814 76.6926 234.653 76.2329C239.411 73.6242 244.965 72.4272 250.331 72.8542C251.278 72.9289 251.876 73.5332 251.679 74.1317C251.491 74.7337 251.304 75.3357 251.116 75.9377C250.919 76.538 250.172 76.9335 249.44 76.8763ZM265.535 76.8763C269.788 76.538 274.189 77.4865 277.96 79.5538C278.61 79.9085 279.447 79.8548 279.858 79.3853C280.261 78.911 280.664 78.4362 281.068 77.9619C281.479 77.4941 281.162 76.6926 280.322 76.2329C275.565 73.6242 270.01 72.4272 264.644 72.8542C263.698 72.9289 263.099 73.5332 263.296 74.1317C263.484 74.7337 263.672 75.3357 263.859 75.9377C264.057 76.538 264.804 76.9335 265.535 76.8763Z" fill="#2249B3"/>
<path fill-rule="evenodd" clip-rule="evenodd" d="M241.368 190.117C241.368 189.967 241.485 189.845 241.629 189.845H277.788C277.932 189.845 278.049 189.967 278.049 190.117C278.049 190.266 277.932 190.387 277.788 190.387H241.629C241.485 190.387 241.368 190.266 241.368 190.117ZM241.368 187.321C241.368 187.171 241.485 187.05 241.629 187.05H277.788C277.932 187.05 278.049 187.171 278.049 187.321C278.049 187.471 277.932 187.592 277.788 187.592H241.629C241.485 187.592 241.368 187.471 241.368 187.321ZM241.368 184.524C241.368 184.374 241.485 184.253 241.629 184.253H277.788C277.932 184.253 278.049 184.374 278.049 184.524C278.049 184.673 277.932 184.795 277.788 184.795H241.629C241.485 184.795 241.368 184.673 241.368 184.524Z" fill="#2249B3"/>
<path opacity="0.15" d="M376.492 131.067C393.074 131.067 406.516 117.127 406.516 99.9308C406.516 82.7347 393.074 68.7948 376.492 68.7948C359.911 68.7948 346.468 82.7347 346.468 99.9308C346.468 117.127 359.911 131.067 376.492 131.067Z" fill="#FF7373"/>
<path opacity="0.15" d="M376.493 124.317C389.48 124.317 400.008 113.399 400.008 99.9308C400.008 86.4628 389.48 75.5446 376.493 75.5446C363.506 75.5446 352.977 86.4628 352.977 99.9308C352.977 113.399 363.506 124.317 376.493 124.317Z" fill="#FF7373"/>
<path opacity="0.25" d="M376.493 117.567C385.885 117.567 393.499 109.671 393.499 99.9314C393.499 90.1909 385.885 82.2949 376.493 82.2949C367.1 82.2949 359.486 90.1909 359.486 99.9314C359.486 109.671 367.1 117.567 376.493 117.567Z" fill="#FF7373"/>
<path opacity="0.5" d="M376.493 110.818C382.29 110.818 386.99 105.943 386.99 99.9314C386.99 93.919 382.29 89.0447 376.493 89.0447C370.695 89.0447 365.995 93.919 365.995 99.9314C365.995 105.943 370.695 110.818 376.493 110.818Z" fill="#FF7373"/>
<path d="M376.492 105.523C379.47 105.523 381.885 103.019 381.885 99.9308C381.885 96.8421 379.47 94.339 376.492 94.339C373.514 94.339 371.1 96.8421 371.1 99.9308C371.1 103.019 373.514 105.523 376.492 105.523Z" fill="#FF7373"/>
<path fill-rule="evenodd" clip-rule="evenodd" d="M5.625 18.1731C5.625 18.0235 5.74194 17.9022 5.88628 17.9022H56.6646C56.8086 17.9022 56.9256 18.0235 56.9256 18.1731C56.9256 18.3227 56.8086 18.4441 56.6646 18.4441H5.88628C5.74194 18.4441 5.625 18.3227 5.625 18.1731ZM130.965 34.1498C130.965 34.0002 131.082 33.8789 131.226 33.8789H182.004C182.148 33.8789 182.265 34.0002 182.265 34.1498C182.265 34.2995 182.148 34.4207 182.004 34.4207H131.226C131.082 34.4207 130.965 34.2995 130.965 34.1498ZM14.9167 149.372C14.9167 149.223 15.0336 149.101 15.1779 149.101H65.9559C66.1005 149.101 66.2175 149.223 66.2175 149.372C66.2175 149.522 66.1005 149.643 65.9559 149.643H15.1779C15.0336 149.643 14.9167 149.522 14.9167 149.372Z" fill="#2249B3"/>
<path d="M20.3494 28.4266C21.7756 28.4266 22.9317 27.2277 22.9317 25.7487C22.9317 24.2697 21.7756 23.0707 20.3494 23.0707C18.9233 23.0707 17.7672 24.2697 17.7672 25.7487C17.7672 27.2277 18.9233 28.4266 20.3494 28.4266Z" fill="#B0C1E1"/>
<path d="M29.7682 28.4266C31.1945 28.4266 32.3506 27.2277 32.3506 25.7487C32.3506 24.2697 31.1945 23.0707 29.7682 23.0707C28.3421 23.0707 27.186 24.2697 27.186 25.7487C27.186 27.2277 28.3421 28.4266 29.7682 28.4266Z" fill="#FF7373"/>
<path opacity="0.15" d="M441.157 260.324H289.862V268.938H441.157V260.324ZM441.157 277.719H289.862V286.334H441.157V277.719Z" fill="#B0C1E1"/>
<path fill-rule="evenodd" clip-rule="evenodd" d="M286.252 105.566C286.252 105.417 286.369 105.296 286.513 105.296H343.658C343.802 105.296 343.919 105.417 343.919 105.566C343.919 105.716 343.802 105.838 343.658 105.838H286.513C286.369 105.838 286.252 105.716 286.252 105.566ZM302.345 101.316C302.345 101.167 302.462 101.046 302.606 101.046H343.658C343.802 101.046 343.919 101.167 343.919 101.316C343.919 101.466 343.802 101.588 343.658 101.588H302.606C302.462 101.588 302.345 101.466 302.345 101.316ZM302.345 97.0667C302.345 96.9168 302.462 96.796 302.606 96.796H354.422C354.567 96.796 354.684 96.9168 354.684 97.0667C354.684 97.2166 354.567 97.3373 354.422 97.3373H302.606C302.462 97.3373 302.345 97.2166 302.345 97.0667ZM302.345 92.8165C302.345 92.6666 302.462 92.5453 302.606 92.5453H343.658C343.802 92.5453 343.919 92.6666 343.919 92.8165C343.919 92.9658 343.802 93.0872 343.658 93.0872H302.606C302.462 93.0872 302.345 92.9658 302.345 92.8165Z" fill="#2249B3"/>
<path d="M317.507 195.723C319.99 195.441 321.643 191.803 321.198 187.599L316.456 142.766C316.083 139.233 314.323 136.328 312.207 135.75L309.871 135.112C306.773 134.266 304.413 138.654 305.21 143.778L312.288 189.25C312.898 193.174 315.168 195.989 317.507 195.723Z" fill="#FF7373"/>
<path d="M288.309 162.254L283.598 200.811C268.12 202.155 252.193 202.356 235.819 200.811L231.108 162.254C240.69 153.504 281.12 153.54 288.309 162.254Z" fill="#2249B3"/>
<path d="M280.651 166.684L277.202 194.917C265.868 195.901 254.206 196.049 242.215 194.917L238.766 166.684C245.782 160.277 275.387 160.303 280.651 166.684Z" fill="#FF7373"/>
<path d="M268.196 97.51C269.053 99.8381 266.074 107.554 257.847 107.127C252.594 106.854 248.155 100.61 249.027 97.51C255.61 99.0453 262.016 99.1824 268.196 97.51Z" fill="#464646"/>
<path d="M232.635 212.775C233.59 212.775 234.364 211.972 234.364 210.982C234.364 209.992 233.59 209.189 232.635 209.189C231.68 209.189 230.906 209.992 230.906 210.982C230.906 211.972 231.68 212.775 232.635 212.775Z" fill="#FF7373"/>
<path d="M237.316 212.775C238.27 212.775 239.045 211.972 239.045 210.982C239.045 209.992 238.27 209.189 237.316 209.189C236.361 209.189 235.587 209.992 235.587 210.982C235.587 211.972 236.361 212.775 237.316 212.775Z" fill="#B0C1E1"/>
<path d="M241.997 212.775C242.952 212.775 243.726 211.972 243.726 210.982C243.726 209.992 242.952 209.189 241.997 209.189C241.042 209.189 240.268 209.992 240.268 210.982C240.268 211.972 241.042 212.775 241.997 212.775Z" fill="#FF7373"/>
<path d="M268.269 97.4353C268.4 97.5421 268.436 97.7988 268.409 98.1412C268.222 100.497 266.126 101.666 263.881 102.07C260.161 102.74 254.414 102.19 251.192 100.795C249.99 100.274 248.912 99.3942 248.943 98.0432C248.949 97.7929 248.994 97.5777 249.1 97.4353C255.685 99.0593 262.087 99.1655 268.269 97.4353Z" fill="white"/>
<path d="M238.974 319.721C238.974 319.721 229.321 318.404 223.162 314.53C215.414 309.655 220.125 301.837 220.125 301.837L238.974 319.721Z" fill="#2249B3"/>
<path opacity="0.25" d="M236.864 94.7024C236.864 94.7024 278.8 98.6329 281.702 96.8013C281.702 96.8013 282.065 94.9474 282.158 93.9843L234.121 92.6893L236.864 94.7024Z" fill="#2249B3"/>
<path fill-rule="evenodd" clip-rule="evenodd" d="M241.368 190.116C241.368 189.967 241.485 189.845 241.629 189.845H277.788C277.932 189.845 278.049 189.967 278.049 190.116C278.049 190.266 277.932 190.387 277.788 190.387H241.629C241.485 190.387 241.368 190.266 241.368 190.116ZM241.368 187.321C241.368 187.171 241.485 187.05 241.629 187.05H277.788C277.932 187.05 278.049 187.171 278.049 187.321C278.049 187.47 277.932 187.592 277.788 187.592H241.629C241.485 187.592 241.368 187.47 241.368 187.321ZM241.368 184.524C241.368 184.374 241.485 184.253 241.629 184.253H277.788C277.932 184.253 278.049 184.374 278.049 184.524C278.049 184.673 277.932 184.795 277.788 184.795H241.629C241.485 184.795 241.368 184.673 241.368 184.524ZM5.625 18.1731C5.625 18.0235 5.74194 17.9022 5.88628 17.9022H56.6646C56.8086 17.9022 56.9256 18.0235 56.9256 18.1731C56.9256 18.3227 56.8086 18.4441 56.6646 18.4441H5.88628C5.74194 18.4441 5.625 18.3227 5.625 18.1731Z" fill="#2249B3"/>
<path d="M20.3494 28.4266C21.7756 28.4266 22.9317 27.2277 22.9317 25.7487C22.9317 24.2697 21.7756 23.0707 20.3494 23.0707C18.9233 23.0707 17.7672 24.2697 17.7672 25.7487C17.7672 27.2277 18.9233 28.4266 20.3494 28.4266Z" fill="#B0C1E1"/>
<path d="M29.7682 28.4266C31.1945 28.4266 32.3506 27.2277 32.3506 25.7487C32.3506 24.2697 31.1945 23.0707 29.7682 23.0707C28.3421 23.0707 27.186 24.2697 27.186 25.7487C27.186 27.2277 28.3421 28.4266 29.7682 28.4266Z" fill="#FF7373"/>
<path d="M222.586 315.742C216.335 309.75 227.229 288.874 238.643 294.528C244 297.183 260.804 303.858 259.709 306.436C258.614 309.015 249.38 320.852 241.541 322.603C231.27 324.897 222.586 315.742 222.586 315.742Z" fill="#2249B3"/>
</svg>
